{"glyphs":{"0":{"ha":828,"x_min":108,"x_max":736,"o":"m 736 394 q 676 106 736 203 q 422 -19 601 -19 q 168 106 243 -19 q 108 394 108 203 q 168 683 108 585 q 422 807 243 807 q 676 683 601 807 q 736 394 736 585 m 553 394 q 536 560 553 506 q 422 656 507 656 q 306 560 333 656 q 292 393 292 511 q 307 228 292 278 q 422 133 336 133 q 536 229 507 133 q 553 394 553 283 z "},"1":{"ha":447,"x_min":96,"x_max":347,"o":"m 347 -4 l 179 -4 l 179 590 l 96 590 l 96 725 q 201 794 201 725 l 347 794 l 347 -4 z "},"2":{"ha":763,"x_min":97,"x_max":676,"o":"m 676 -4 l 97 -4 l 97 71 q 156 252 97 167 q 296 386 214 338 q 469 490 347 415 q 510 575 510 526 q 469 632 510 613 q 394 647 438 647 q 199 557 315 647 l 97 685 q 411 799 228 799 q 601 738 532 799 q 669 557 669 676 q 568 381 669 447 q 385 268 543 364 q 308 154 308 210 l 676 154 l 676 -4 z "},"3":{"ha":756,"x_min":90,"x_max":657,"o":"m 657 243 q 567 51 657 118 q 358 -8 488 -8 q 90 121 163 -8 l 235 203 q 360 132 264 132 q 492 246 492 132 q 428 353 492 329 q 293 364 397 364 l 293 513 q 394 517 378 513 q 447 592 447 531 q 360 671 447 671 q 274 611 285 671 l 133 658 q 219 766 157 726 q 357 806 282 806 q 524 753 457 806 q 597 599 597 696 q 521 456 597 517 q 621 374 581 446 q 657 243 657 310 z "},"4":{"ha":842,"x_min":93,"x_max":756,"o":"m 756 183 l 649 183 l 649 -6 l 475 -6 l 475 183 l 93 183 l 93 346 l 457 793 l 649 793 l 649 335 l 756 335 l 756 183 m 475 335 l 475 586 l 274 335 l 475 335 z "},"5":{"ha":792,"x_min":89,"x_max":701,"o":"m 701 264 q 603 50 701 125 q 371 -19 513 -19 q 89 50 201 -19 l 176 190 q 368 125 282 125 q 488 158 440 125 q 543 265 543 197 q 500 361 543 321 q 401 401 457 401 q 264 340 326 401 l 104 396 q 147 793 136 636 l 649 793 l 649 640 l 290 640 l 278 514 q 406 546 324 546 q 622 472 542 546 q 701 264 701 399 z "},"6":{"ha":774,"x_min":97,"x_max":685,"o":"m 685 265 q 602 58 685 129 q 381 -14 519 -14 q 168 79 243 -14 q 97 306 97 165 q 206 642 97 500 q 514 797 325 797 l 542 665 q 296 492 367 665 q 425 525 346 525 q 613 453 542 525 q 685 265 685 382 m 529 257 q 493 353 529 317 q 397 389 457 389 q 299 353 338 389 q 260 257 260 317 q 296 161 260 197 q 392 125 332 125 q 490 161 451 125 q 529 257 529 197 z "},"7":{"ha":764,"x_min":86,"x_max":675,"o":"m 675 640 q 461 353 539 547 q 392 -4 392 181 l 208 -4 q 267 344 208 172 q 454 635 335 546 l 86 635 l 86 793 l 675 793 l 675 640 z "},"8":{"ha":781,"x_min":104,"x_max":700,"o":"m 700 243 q 611 51 700 119 q 403 -8 531 -8 q 194 53 275 -8 q 104 243 104 119 q 142 368 104 307 q 238 456 181 429 q 167 600 167 519 q 242 749 167 689 q 401 806 311 806 q 565 750 494 806 q 642 599 642 689 q 564 456 642 517 q 664 374 624 446 q 700 243 700 310 m 492 592 q 404 671 492 671 q 315 592 315 671 q 404 513 315 513 q 492 592 492 513 m 536 246 q 404 364 536 364 q 271 246 271 364 q 313 161 271 193 q 404 132 350 132 q 536 246 536 132 z "},"9":{"ha":788,"x_min":111,"x_max":699,"o":"m 699 475 q 590 139 699 281 q 282 -17 471 -17 l 254 115 q 500 288 429 115 q 371 256 450 256 q 183 327 254 256 q 111 515 111 399 q 196 725 111 653 q 415 793 275 793 q 629 701 554 793 q 699 475 699 617 m 536 524 q 501 619 536 583 q 406 656 465 656 q 306 619 344 656 q 267 524 267 583 q 303 428 267 464 q 399 392 339 392 q 497 428 458 392 q 536 524 536 464 z "}," ":{"ha":482,"x_min":0,"x_max":0,"o":""},"!":{"ha":410,"x_min":115,"x_max":299,"o":"m 276 475 q 271 393 275 461 l 261 229 l 151 229 l 142 393 q 136 475 139 444 l 136 793 l 276 793 l 276 475 m 299 88 q 272 23 299 50 q 207 -4 244 -4 q 142 23 169 -4 q 115 88 115 50 q 142 152 115 125 q 207 179 169 179 q 272 152 244 179 q 299 88 299 125 z "},"\"":{"ha":642,"x_min":118,"x_max":526,"o":"m 526 825 l 497 464 l 407 464 l 379 825 l 526 825 m 265 825 l 238 464 l 146 464 l 118 825 l 265 825 z "},"#":{"ha":965,"x_min":100,"x_max":874,"o":"m 874 489 l 706 489 l 660 304 l 813 304 l 813 189 l 631 189 l 582 -4 l 472 -4 l 519 189 l 360 189 l 311 -4 l 199 -4 l 247 189 l 100 189 l 100 304 l 275 304 l 321 489 l 161 489 l 161 604 l 349 604 l 396 793 l 508 793 l 461 604 l 622 604 l 668 793 l 781 793 l 735 604 l 874 604 l 874 489 m 596 490 l 433 490 l 386 303 l 549 303 l 596 490 z "},"$":{"ha":810,"x_min":100,"x_max":711,"o":"m 711 281 q 492 68 711 103 l 492 -4 l 322 -4 l 322 65 q 100 119 200 78 l 160 251 q 322 201 222 214 l 322 363 q 103 558 103 414 q 322 721 103 685 l 322 793 l 492 793 l 492 726 q 676 675 601 715 l 625 540 q 492 583 589 565 l 492 482 q 711 281 711 439 m 322 506 l 322 586 q 282 540 282 574 q 322 506 282 517 m 542 281 q 492 332 542 317 l 492 208 q 542 281 542 228 z "},"%":{"ha":903,"x_min":82,"x_max":813,"o":"m 381 642 q 337 537 381 581 q 232 493 293 493 q 126 536 169 493 q 82 642 82 579 q 126 748 82 704 q 232 792 169 792 q 338 748 294 792 q 381 642 381 704 m 669 792 l 325 -3 l 211 -3 l 556 792 l 669 792 m 813 147 q 769 41 813 85 q 664 -3 726 -3 q 558 41 601 -3 q 515 147 515 85 q 559 252 515 208 q 664 296 603 296 q 769 253 726 296 q 813 147 813 210 m 332 642 q 303 713 332 683 q 232 743 274 743 q 160 713 190 743 q 131 642 131 683 q 160 571 131 600 q 232 542 190 542 q 303 571 274 542 q 332 642 332 600 m 765 147 q 735 218 765 189 q 664 247 706 247 q 593 218 622 247 q 564 147 564 189 q 593 76 564 106 q 664 46 622 46 q 735 76 706 46 q 765 147 765 106 z "},"&":{"ha":1021,"x_min":88,"x_max":978,"o":"m 978 -3 l 733 -3 l 654 69 q 397 -19 525 -19 q 185 36 268 -19 q 88 224 88 100 q 128 347 88 297 q 232 429 157 383 q 128 622 128 514 q 224 769 128 721 q 408 808 300 808 q 669 622 669 808 l 486 569 q 399 671 486 671 q 314 600 314 671 q 451 444 314 560 q 635 300 489 415 q 669 454 668 350 l 853 454 l 853 401 q 781 182 853 274 l 978 -3 m 526 186 l 342 338 q 299 304 306 311 q 281 256 281 285 q 319 165 281 200 q 414 131 358 131 q 526 186 486 131 z "},"'":{"ha":417,"x_min":126,"x_max":308,"o":"m 308 733 q 274 604 308 654 q 157 549 233 549 l 157 582 q 225 643 218 582 q 155 667 183 643 q 126 733 126 692 q 153 799 126 772 q 218 825 179 825 q 283 799 257 825 q 308 733 308 772 z "},"(":{"ha":513,"x_min":101,"x_max":440,"o":"m 440 -203 l 276 -203 q 101 311 101 38 q 276 825 101 583 l 440 825 q 233 311 233 603 q 440 -203 233 49 z "},")":{"ha":554,"x_min":103,"x_max":442,"o":"m 442 311 q 399 39 442 161 q 265 -203 357 -76 l 103 -203 q 257 33 213 -68 q 310 311 310 156 q 179 732 310 546 q 103 825 165 751 l 265 825 q 442 311 442 583 z "},"*":{"ha":972,"x_min":143,"x_max":874,"o":"m 874 351 l 807 254 l 560 417 l 568 149 l 444 149 l 450 410 l 208 253 l 143 351 l 408 503 l 143 657 l 208 756 l 450 596 l 444 858 l 568 858 l 561 596 l 806 753 l 872 656 l 606 504 l 874 351 z "},"+":{"ha":664,"x_min":171,"x_max":558,"o":"m 558 354 l 439 354 l 439 232 l 297 232 l 297 354 l 171 354 l 171 496 l 297 496 l 297 619 l 439 619 l 439 496 l 558 496 l 558 354 z "},",":{"ha":396,"x_min":114,"x_max":297,"o":"m 297 88 q 261 -42 297 8 q 144 -99 221 -99 l 144 -64 q 213 -4 210 -64 q 142 20 169 -4 q 114 88 114 44 q 141 152 114 125 q 206 179 168 179 q 270 152 243 179 q 297 88 297 125 z "},"-":{"ha":517,"x_min":131,"x_max":399,"o":"m 399 354 l 131 354 l 131 496 l 399 496 l 399 354 z "},".":{"ha":396,"x_min":117,"x_max":299,"o":"m 299 88 q 272 22 299 49 q 207 -4 246 -4 q 143 23 169 -4 q 117 88 117 50 q 143 152 117 125 q 207 179 169 179 q 272 153 246 179 q 299 88 299 126 z "},"/":{"ha":625,"x_min":65,"x_max":568,"o":"m 568 871 l 200 -60 l 65 -60 l 432 871 l 568 871 z "},":":{"ha":381,"x_min":90,"x_max":272,"o":"m 272 506 q 246 440 272 467 q 181 414 219 414 q 116 440 142 414 q 90 506 90 467 q 117 569 90 543 q 181 596 143 596 q 246 570 219 596 q 272 506 272 544 m 272 88 q 246 22 272 49 q 181 -4 219 -4 q 117 23 143 -4 q 90 88 90 50 q 117 152 90 125 q 181 179 143 179 q 246 153 219 179 q 272 88 272 126 z "},";":{"ha":389,"x_min":97,"x_max":281,"o":"m 281 506 q 254 440 281 467 q 189 414 228 414 q 124 440 150 414 q 97 506 97 467 q 124 569 97 543 q 189 596 151 596 q 253 569 226 596 q 281 506 281 543 m 281 88 q 244 -42 281 8 q 128 -99 204 -99 l 128 -64 q 196 -4 193 -64 q 125 20 153 -4 q 97 88 97 44 q 124 152 97 125 q 189 179 151 179 q 253 152 226 179 q 281 88 281 125 z "},"<":{"ha":1001,"x_min":150,"x_max":863,"o":"m 863 303 l 571 303 l 599 171 q 600 158 600 164 q 569 126 600 126 q 538 138 553 126 l 150 428 l 538 719 q 569 731 553 731 q 600 699 600 731 q 599 686 600 693 l 571 553 l 863 553 l 863 303 z "},"=":{"ha":615,"x_min":118,"x_max":506,"o":"m 506 478 l 118 478 l 118 619 l 506 619 l 506 478 m 506 229 l 118 229 l 118 372 l 506 371 l 506 229 z "},">":{"ha":1006,"x_min":150,"x_max":863,"o":"m 863 428 l 475 138 q 443 126 460 126 q 414 158 414 126 q 415 171 414 164 l 442 303 l 150 303 l 150 553 l 442 553 l 415 686 q 414 699 414 693 q 443 731 414 731 q 475 719 460 731 l 863 428 z "},"?":{"ha":701,"x_min":88,"x_max":617,"o":"m 617 600 q 565 444 617 497 q 467 367 515 406 q 406 214 411 313 l 247 214 q 246 238 246 226 q 296 413 246 343 q 389 501 313 436 q 439 592 439 544 q 357 660 439 660 q 256 637 311 660 q 172 582 200 614 l 88 713 q 354 818 176 818 q 538 767 467 818 q 617 600 617 710 m 417 88 q 390 23 417 50 q 325 -4 363 -4 q 260 23 288 -4 q 233 88 233 50 q 260 152 233 125 q 325 179 288 179 q 390 152 363 179 q 417 88 417 125 z "},"@":{"ha":879,"x_min":82,"x_max":797,"o":"m 797 379 q 765 185 797 239 q 713 145 751 163 q 644 128 674 128 q 572 147 608 128 q 526 197 536 165 q 407 171 481 171 q 283 299 283 171 q 326 396 283 361 q 429 428 365 428 q 504 414 475 428 q 433 468 493 468 q 361 444 392 468 l 329 507 q 444 549 361 549 q 552 515 510 549 q 594 419 594 482 l 594 265 q 647 210 594 210 q 718 269 706 210 q 722 378 722 288 q 648 583 722 507 q 444 658 574 658 q 241 577 322 658 q 160 374 160 496 q 237 166 160 246 q 442 86 314 86 l 378 36 q 165 144 254 36 q 82 374 82 247 q 189 624 82 525 q 444 721 292 721 q 698 626 599 721 q 797 379 797 532 m 504 281 l 504 336 q 450 349 504 349 q 378 299 378 349 q 440 256 378 256 q 504 281 504 256 z "},"A":{"ha":913,"x_min":88,"x_max":844,"o":"m 844 -4 l 650 -4 l 596 160 l 342 160 l 286 -4 l 88 -4 l 372 793 l 558 793 l 844 -4 m 551 294 l 468 546 l 385 294 l 551 294 z "},"B":{"ha":840,"x_min":113,"x_max":763,"o":"m 763 243 q 469 -4 763 -4 l 113 -4 l 113 793 l 457 793 q 620 733 551 793 q 689 581 689 674 q 625 442 689 499 q 729 368 693 425 q 763 243 763 317 m 535 568 q 505 622 535 603 q 439 642 475 642 l 294 642 l 294 496 l 439 496 q 505 515 475 496 q 535 568 535 535 m 590 250 q 558 325 590 299 q 475 351 525 351 l 294 350 l 294 147 l 475 147 q 557 175 524 147 q 590 250 590 203 z "},"C":{"ha":906,"x_min":90,"x_max":833,"o":"m 833 643 l 671 553 q 494 635 610 635 q 288 394 288 635 q 338 225 288 289 q 494 154 392 154 q 653 214 599 154 l 822 136 q 494 -14 714 -14 q 204 102 318 -14 q 90 394 90 218 q 198 692 90 583 q 494 801 306 801 q 833 643 728 801 z "},"D":{"ha":926,"x_min":107,"x_max":840,"o":"m 840 400 q 772 175 840 274 q 378 -4 647 -4 l 107 -4 l 107 793 l 386 793 q 636 738 529 793 q 808 554 756 676 q 840 400 840 481 m 649 393 q 560 581 649 515 q 354 639 481 639 l 293 639 l 293 151 l 354 151 q 560 207 482 151 q 649 393 649 269 z "},"E":{"ha":714,"x_min":107,"x_max":642,"o":"m 642 -4 l 107 -4 l 107 793 l 642 793 l 642 651 l 283 651 l 283 496 l 503 496 l 503 354 l 283 354 l 283 138 l 642 138 l 642 -4 z "},"F":{"ha":722,"x_min":119,"x_max":649,"o":"m 649 651 l 296 651 l 296 485 l 522 485 l 522 343 l 296 343 l 296 -4 l 119 -4 l 119 793 l 649 793 l 649 651 z "},"G":{"ha":938,"x_min":85,"x_max":864,"o":"m 864 304 q 742 74 864 167 q 489 -14 629 -14 q 199 102 313 -14 q 85 394 85 218 q 192 699 85 585 q 489 814 300 814 q 826 643 714 814 l 665 553 q 594 624 647 596 q 489 651 540 651 q 281 394 281 651 q 329 224 281 286 q 489 154 383 154 q 593 176 544 154 q 664 249 651 203 l 489 249 l 489 394 l 864 394 l 864 304 z "},"H":{"ha":907,"x_min":115,"x_max":804,"o":"m 804 -4 l 619 -4 l 619 324 l 299 324 l 299 -4 l 115 -4 l 115 793 l 299 793 l 299 483 l 619 483 l 619 793 l 804 793 l 804 -4 z "},"I":{"ha":400,"x_min":121,"x_max":290,"o":"m 290 -4 l 121 -4 l 121 793 l 290 793 l 290 -4 z "},"J":{"ha":664,"x_min":117,"x_max":561,"o":"m 561 269 q 474 69 561 147 q 264 -10 388 -10 q 190 -6 239 -10 q 117 -1 142 -1 l 117 150 q 314 172 269 150 q 389 340 389 210 l 389 793 l 561 793 l 561 269 z "},"K":{"ha":906,"x_min":121,"x_max":831,"o":"m 831 -4 l 604 -4 l 417 308 l 306 175 l 306 -4 l 121 -4 l 121 793 l 306 793 l 306 406 l 601 793 l 815 793 l 533 450 l 831 -4 z "},"L":{"ha":751,"x_min":106,"x_max":669,"o":"m 669 -4 l 106 -4 l 106 793 l 283 793 l 283 156 l 669 156 l 669 -4 z "},"M":{"ha":1042,"x_min":121,"x_max":946,"o":"m 946 -4 l 757 -4 l 757 481 l 533 -4 l 299 481 l 299 -4 l 121 -4 l 121 793 l 346 793 l 533 401 l 719 793 l 946 793 l 946 -4 z "},"N":{"ha":932,"x_min":111,"x_max":813,"o":"m 813 -4 l 631 -4 l 292 543 l 292 -4 l 111 -4 l 111 793 l 340 793 l 632 339 l 632 793 l 813 793 l 813 -4 z "},"O":{"ha":976,"x_min":103,"x_max":888,"o":"m 888 394 q 788 97 888 204 q 496 -14 685 -14 q 207 100 313 -14 q 103 394 103 210 q 206 692 103 583 q 496 801 308 801 q 785 692 682 801 q 888 394 888 582 m 692 394 q 496 640 692 640 q 300 394 300 640 q 496 149 300 149 q 692 394 692 149 z "},"P":{"ha":850,"x_min":121,"x_max":776,"o":"m 776 546 q 708 362 776 439 q 533 285 640 285 l 303 285 l 303 -4 l 121 -4 l 121 793 l 533 793 q 708 723 639 793 q 776 546 776 653 m 594 542 q 563 613 594 586 q 486 639 532 639 l 303 639 l 303 440 l 486 440 q 563 469 532 440 q 594 542 594 497 z "},"Q":{"ha":975,"x_min":107,"x_max":892,"o":"m 892 394 q 785 93 892 201 l 836 33 l 710 -72 l 647 8 q 493 -17 569 -17 q 212 100 317 -17 q 107 394 107 217 q 209 692 107 583 q 499 801 311 801 q 790 690 685 801 q 892 394 892 582 m 694 394 q 499 640 694 640 q 303 394 303 640 q 493 147 303 147 q 535 150 513 147 l 440 267 l 576 357 l 667 243 q 694 394 694 300 z "},"R":{"ha":854,"x_min":115,"x_max":769,"o":"m 769 546 q 731 401 769 468 q 624 304 692 335 l 769 -4 l 567 -4 l 431 285 l 297 285 l 297 -4 l 115 -4 l 115 793 l 528 793 q 701 722 633 793 q 769 546 769 651 m 589 542 q 557 613 589 586 q 479 639 525 639 l 297 639 l 297 440 l 479 440 q 557 469 525 440 q 589 542 589 497 z "},"S":{"ha":793,"x_min":111,"x_max":722,"o":"m 722 253 q 631 50 722 119 q 411 -14 547 -14 q 111 57 250 -14 l 174 200 q 286 156 210 172 q 407 140 351 140 q 550 242 550 140 q 436 349 550 313 l 285 396 q 226 415 268 401 q 114 594 114 474 q 228 758 114 701 q 438 804 319 804 q 686 738 588 804 l 636 593 q 526 639 603 622 q 406 653 464 653 q 301 585 301 653 q 411 506 301 539 q 613 433 571 457 q 722 253 722 371 z "},"T":{"ha":861,"x_min":103,"x_max":779,"o":"m 779 633 l 533 633 l 533 -4 l 350 -4 l 350 633 l 103 633 l 103 793 l 779 793 l 779 633 z "},"U":{"ha":901,"x_min":106,"x_max":789,"o":"m 789 314 q 694 74 789 157 q 446 -7 606 -7 q 197 75 289 -7 q 106 313 106 157 l 106 793 l 290 793 l 290 336 q 446 163 290 163 q 603 336 603 163 l 603 793 l 789 793 l 789 314 z "},"V":{"ha":910,"x_min":71,"x_max":858,"o":"m 858 793 l 572 -4 l 356 -4 l 71 793 l 271 793 l 467 264 l 663 793 l 858 793 z "},"W":{"ha":1285,"x_min":81,"x_max":1206,"o":"m 1206 793 l 988 -4 l 765 -4 l 642 482 l 521 -4 l 299 -4 l 81 793 l 272 793 l 411 253 l 561 793 l 732 793 l 882 253 l 1021 793 l 1206 793 z "},"X":{"ha":935,"x_min":82,"x_max":858,"o":"m 858 -4 l 643 -4 l 467 272 l 286 -4 l 82 -4 l 358 397 l 88 793 l 303 793 l 474 532 l 649 793 l 854 793 l 582 406 l 858 -4 z "},"Y":{"ha":914,"x_min":89,"x_max":853,"o":"m 853 793 l 567 304 l 567 -4 l 381 -4 l 381 294 l 89 793 l 300 793 l 478 467 l 650 793 l 853 793 z "},"Z":{"ha":828,"x_min":101,"x_max":742,"o":"m 742 -4 l 101 -4 l 101 139 l 482 618 l 121 618 l 121 793 l 719 793 l 719 647 l 340 171 l 742 171 l 742 -4 z "},"[":{"ha":504,"x_min":119,"x_max":411,"o":"m 411 -193 l 119 -193 l 119 825 l 411 825 l 411 713 l 242 713 l 242 -81 l 411 -81 l 411 -193 z "},"\\":{"ha":681,"x_min":72,"x_max":608,"o":"m 608 -161 l 474 -161 l 72 825 l 210 825 l 608 -161 z "},"]":{"ha":531,"x_min":119,"x_max":411,"o":"m 411 -193 l 119 -193 l 119 -81 l 289 -81 l 289 713 l 119 713 l 119 825 l 411 825 l 411 -193 z "},"^":{"ha":793,"x_min":92,"x_max":697,"o":"m 697 478 q 664 447 697 447 q 651 449 658 447 l 519 476 l 519 185 l 269 185 l 269 476 l 136 449 q 124 447 129 447 q 92 478 92 447 q 103 510 92 494 l 394 897 l 685 510 q 697 478 697 493 z "},"_":{"ha":1026,"x_min":117,"x_max":897,"o":"m 897 -174 l 117 -174 l 117 6 l 897 6 l 897 -174 z "},"`":{"ha":651,"x_min":254,"x_max":479,"o":"m 479 653 l 401 653 l 254 919 l 381 919 l 479 653 z "},"a":{"ha":757,"x_min":100,"x_max":660,"o":"m 660 -1 l 496 -1 l 496 38 q 321 -6 411 -6 q 159 49 218 -6 q 100 207 100 104 q 176 378 100 319 q 361 431 246 431 q 496 399 436 431 q 368 508 493 508 q 239 465 282 508 l 181 569 q 389 640 249 640 q 576 588 503 640 q 660 419 660 529 l 660 -1 m 494 182 l 494 257 q 456 289 494 276 q 399 299 425 299 q 268 211 268 299 q 382 139 268 139 q 446 153 403 139 q 494 182 494 168 z "},"b":{"ha":783,"x_min":104,"x_max":697,"o":"m 697 286 q 622 76 697 156 q 415 -4 546 -4 q 272 53 310 -4 l 272 -3 l 104 -3 l 104 756 l 272 815 l 272 578 q 425 624 349 624 q 635 519 563 624 q 697 286 697 429 m 540 292 q 392 469 540 469 q 272 383 313 469 l 272 240 q 392 143 321 143 q 501 183 461 143 q 540 292 540 222 z "},"c":{"ha":724,"x_min":97,"x_max":651,"o":"m 651 86 q 411 -15 564 -15 q 181 72 265 -15 q 97 306 97 158 q 185 535 97 444 q 411 626 274 626 q 631 542 542 626 l 504 446 q 411 479 469 479 q 303 425 340 479 q 269 304 269 378 q 413 131 269 131 q 513 169 476 131 l 651 86 z "},"d":{"ha":790,"x_min":88,"x_max":692,"o":"m 692 -3 l 525 -3 l 525 53 q 378 -4 486 -4 q 169 77 250 -4 q 88 286 88 158 q 164 515 88 418 q 375 621 246 621 q 525 578 451 621 l 525 756 l 692 815 l 692 -3 m 525 235 l 525 378 q 406 464 483 464 q 257 286 257 464 q 297 177 257 217 q 406 138 336 138 q 525 235 472 138 z "},"e":{"ha":767,"x_min":89,"x_max":696,"o":"m 696 229 l 260 229 q 293 167 258 196 q 364 133 328 139 q 403 131 382 131 q 510 178 476 131 l 629 89 q 403 -15 549 -15 q 174 72 260 -15 q 89 301 89 158 q 172 544 89 456 q 407 633 254 633 q 636 507 554 633 q 696 229 696 414 m 529 361 q 491 455 529 417 q 397 493 453 493 q 300 455 342 493 q 258 361 258 417 l 529 361 z "},"f":{"ha":585,"x_min":103,"x_max":469,"o":"m 469 490 l 336 490 l 336 -4 l 179 -4 l 179 490 l 103 490 l 103 608 l 179 608 q 389 828 179 828 q 469 821 426 828 l 469 692 q 376 683 397 692 q 331 608 335 667 l 469 608 l 469 490 z "},"g":{"ha":782,"x_min":99,"x_max":690,"o":"m 690 128 q 619 -136 690 -31 q 388 -260 538 -260 l 365 -110 q 517 38 517 -90 q 453 4 482 13 q 382 -1 431 -1 q 175 72 242 -1 q 99 321 99 157 q 180 531 99 447 q 386 614 261 614 q 522 581 461 614 l 522 614 l 690 614 l 690 128 m 522 231 l 522 376 q 490 435 522 408 q 425 463 458 463 q 314 424 356 463 q 272 317 272 385 q 399 149 272 149 q 476 171 436 149 q 522 231 522 196 z "},"h":{"ha":769,"x_min":114,"x_max":681,"o":"m 681 -4 l 513 -4 l 513 364 q 477 434 513 404 q 400 464 442 464 q 320 433 360 464 q 281 364 281 403 l 281 -4 l 114 -4 l 114 739 l 281 825 l 281 550 q 444 606 319 606 q 614 546 547 606 q 681 385 681 486 l 681 -4 z "},"i":{"ha":374,"x_min":100,"x_max":283,"o":"m 283 740 q 256 676 283 703 q 192 650 229 650 q 127 676 154 650 q 100 740 100 703 q 126 806 100 779 q 192 832 153 832 q 257 806 231 832 q 283 740 283 779 m 274 -4 l 107 -4 l 107 614 l 274 614 l 274 -4 z "},"j":{"ha":468,"x_min":22,"x_max":324,"o":"m 324 740 q 297 676 324 703 q 232 650 269 650 q 167 676 194 650 q 140 740 140 703 q 167 806 140 779 q 232 832 193 832 q 297 806 271 832 q 324 740 324 779 m 313 -3 q 247 -171 313 -96 q 88 -250 179 -250 l 22 -121 q 118 -57 83 -121 q 147 63 147 -4 l 147 614 l 313 614 l 313 -3 z "},"k":{"ha":757,"x_min":101,"x_max":694,"o":"m 694 -4 l 500 -4 l 331 269 l 268 208 l 268 -4 l 101 -4 l 101 743 l 268 825 l 268 417 l 444 590 l 678 590 l 463 375 l 694 -4 z "},"l":{"ha":411,"x_min":126,"x_max":294,"o":"m 294 -4 l 126 -4 l 126 739 l 294 825 l 294 -4 z "},"m":{"ha":1169,"x_min":110,"x_max":1074,"o":"m 1074 -4 l 906 -4 l 906 346 q 878 432 906 399 q 799 465 850 465 q 682 390 711 465 q 675 363 675 372 l 675 -4 l 507 -4 l 507 346 q 479 432 507 399 q 400 465 451 465 q 312 431 349 465 q 275 346 275 397 l 275 -4 l 110 -4 l 110 614 l 275 614 l 275 561 q 449 624 343 624 q 610 565 546 624 q 811 619 697 619 q 993 567 922 619 q 1074 400 1074 507 l 1074 -4 z "},"n":{"ha":769,"x_min":117,"x_max":683,"o":"m 683 -4 l 515 -4 l 515 346 q 487 431 515 397 q 408 465 458 465 q 320 431 357 465 q 283 346 283 397 l 283 -4 l 117 -4 l 117 614 l 283 614 l 283 561 q 457 624 351 624 q 621 563 558 624 q 683 400 683 501 l 683 -4 z "},"o":{"ha":775,"x_min":81,"x_max":707,"o":"m 707 306 q 622 73 707 161 q 393 -15 538 -15 q 164 72 247 -15 q 81 306 81 158 q 168 535 81 444 q 393 626 256 626 q 619 535 532 626 q 707 306 707 444 m 531 304 q 393 478 531 478 q 288 424 324 478 q 256 304 256 376 q 394 133 256 133 q 531 304 531 133 z "},"p":{"ha":783,"x_min":106,"x_max":697,"o":"m 697 325 q 631 99 697 189 q 425 -3 557 -3 q 274 33 350 -3 l 274 -174 l 106 -264 l 106 626 l 274 626 l 274 571 q 408 625 310 625 q 617 540 538 625 q 697 325 697 456 m 540 319 q 392 468 540 468 q 318 439 358 468 q 274 378 274 408 l 274 232 q 313 182 274 207 q 378 157 351 157 q 540 319 540 157 z "},"q":{"ha":807,"x_min":106,"x_max":697,"o":"m 697 -187 l 529 -267 l 529 33 q 379 -3 453 -3 q 174 99 249 -3 q 106 325 106 190 q 183 535 106 453 q 386 617 260 617 q 529 560 492 617 l 529 614 l 697 614 l 697 -187 m 529 232 l 529 378 q 487 439 529 410 q 411 468 444 468 q 263 319 263 468 q 306 200 263 243 q 425 157 349 157 q 490 179 457 157 q 529 232 529 203 z "},"r":{"ha":544,"x_min":115,"x_max":492,"o":"m 492 606 l 435 442 q 374 463 400 463 q 299 433 329 463 q 269 358 269 403 l 269 -4 l 115 -4 l 115 615 l 269 615 l 269 568 q 404 629 324 629 q 492 606 457 629 z "},"s":{"ha":668,"x_min":83,"x_max":603,"o":"m 603 190 q 314 -12 603 -12 q 83 46 229 -12 l 142 178 q 331 131 221 131 q 428 186 428 131 q 339 235 428 213 q 175 290 222 264 q 86 439 86 340 q 179 594 86 542 q 367 639 256 639 q 576 585 494 639 l 525 440 q 338 494 429 494 q 269 446 269 494 q 356 396 269 417 q 517 342 474 367 q 603 190 603 290 z "},"t":{"ha":544,"x_min":79,"x_max":476,"o":"m 476 138 l 446 0 q 331 -14 381 -14 q 153 183 153 -14 l 153 478 l 79 478 l 79 617 l 153 617 l 153 718 l 308 796 l 308 617 l 451 617 l 451 478 l 308 478 l 308 253 q 392 118 308 118 q 476 138 426 118 z "},"u":{"ha":765,"x_min":100,"x_max":665,"o":"m 665 -1 l 499 -1 l 499 51 q 326 -11 432 -11 q 163 49 225 -11 q 100 211 100 110 l 100 617 l 267 617 l 268 267 q 374 147 268 147 q 462 181 425 147 q 499 267 499 215 l 499 617 l 665 617 l 665 -1 z "},"v":{"ha":744,"x_min":74,"x_max":683,"o":"m 683 617 l 463 -4 l 288 -4 l 74 617 l 240 617 l 378 238 l 514 617 l 683 617 z "},"w":{"ha":1150,"x_min":75,"x_max":1097,"o":"m 1097 617 l 876 -4 l 701 -4 l 585 333 l 464 -4 l 289 -4 l 75 617 l 243 617 l 381 239 l 517 617 l 657 617 l 656 614 l 792 239 l 928 617 l 1097 617 z "},"x":{"ha":785,"x_min":57,"x_max":692,"o":"m 692 -4 l 507 -4 l 381 190 l 253 -4 l 57 -4 l 272 310 l 68 617 l 263 617 l 381 426 l 497 617 l 692 617 l 488 310 l 692 -4 z "},"y":{"ha":818,"x_min":81,"x_max":758,"o":"m 758 617 l 401 -254 l 229 -254 l 329 1 l 81 617 l 253 617 l 421 207 l 596 617 l 758 617 z "},"z":{"ha":792,"x_min":139,"x_max":661,"o":"m 661 -4 l 139 -4 l 139 117 l 411 465 l 151 465 l 151 617 l 656 617 l 656 497 l 389 150 l 661 150 l 661 -4 z "},"{":{"ha":717,"x_min":81,"x_max":632,"o":"m 632 -193 l 500 -193 q 289 26 289 -193 q 289 53 289 53 q 290 79 290 89 q 258 203 290 165 q 81 258 213 256 l 81 374 q 258 429 213 376 q 290 553 290 467 q 289 579 290 543 q 289 607 289 579 q 500 825 289 825 l 632 825 l 632 721 q 463 682 493 721 q 440 576 439 653 q 422 450 442 490 q 283 326 390 376 l 283 306 q 422 182 390 256 q 440 56 442 142 q 463 -50 439 -21 q 632 -89 493 -89 l 632 -193 z "},"|":{"ha":307,"x_min":121,"x_max":188,"o":"m 188 -193 l 121 -193 l 121 825 l 188 825 l 188 -193 z "},"}":{"ha":722,"x_min":81,"x_max":635,"o":"m 635 258 q 458 206 504 258 q 425 83 425 168 q 426 54 425 92 q 426 26 426 54 q 214 -193 426 -193 l 81 -193 l 81 -89 q 251 -50 221 -89 q 274 56 275 -21 q 292 182 272 142 q 432 306 324 256 l 432 326 q 292 450 324 376 q 274 576 272 490 q 251 682 275 653 q 81 721 221 721 l 81 825 l 214 825 q 426 606 426 825 q 426 579 426 579 q 425 553 425 543 q 457 429 425 467 q 635 374 503 376 l 635 258 z "},"~":{"ha":1011,"x_min":104,"x_max":896,"o":"m 896 463 q 818 291 892 368 q 651 214 744 214 q 491 287 599 214 q 350 360 383 360 q 276 303 294 360 q 254 201 275 300 l 104 251 q 171 433 125 374 q 343 510 231 510 q 526 445 415 510 q 644 381 638 381 q 757 511 731 381 l 896 463 z "},"¡":{"ha":399,"x_min":104,"x_max":286,"o":"m 286 704 q 260 639 286 665 q 194 613 233 613 q 131 640 157 613 q 104 704 104 667 q 131 769 104 742 q 194 796 157 796 q 260 769 233 796 q 286 704 286 743 m 265 -1 l 125 -1 l 125 340 q 131 414 126 353 l 140 561 l 250 561 l 260 414 q 265 340 263 368 l 265 -1 z "},"¢":{"ha":765,"x_min":92,"x_max":669,"o":"m 640 589 l 492 558 l 492 853 l 269 853 l 269 558 q 110 589 119 589 q 92 574 92 589 q 100 550 92 561 l 381 178 l 660 550 q 669 574 669 563 q 640 589 669 594 z "},"£":{"ha":765,"x_min":104,"x_max":660,"o":"m 313 663 l 104 454 l 261 297 l 469 506 l 554 378 q 572 364 564 364 q 594 392 590 364 l 660 853 l 199 788 q 171 765 171 783 q 185 747 171 757 l 313 663 z "},"¤":{"ha":765,"x_min":111,"x_max":667,"o":"m 458 663 l 667 454 l 510 297 l 301 506 l 217 378 q 199 364 207 364 q 176 392 181 364 l 111 853 l 572 788 q 600 765 600 783 q 586 747 600 757 l 458 663 z "},"¥":{"ha":765,"x_min":104,"x_max":660,"o":"m 313 461 l 104 669 l 261 826 l 469 618 l 554 746 q 572 760 564 760 q 594 732 590 760 l 660 271 l 199 336 q 171 358 171 340 q 185 376 171 367 l 313 461 z "},"¦":{"ha":765,"x_min":111,"x_max":667,"o":"m 458 429 l 667 638 l 510 794 l 301 586 l 217 713 q 197 728 207 728 q 176 700 181 728 l 111 238 l 572 304 q 600 326 600 308 q 586 344 600 335 l 458 429 z "},"§":{"ha":765,"x_min":92,"x_max":669,"o":"m 650 461 q 640 463 647 461 l 492 493 l 492 199 l 269 199 l 269 493 l 119 463 q 110 461 113 461 q 92 478 92 461 q 100 501 92 490 l 381 874 l 660 501 q 669 478 669 489 q 650 461 669 461 z "},"¨":{"ha":838,"x_min":203,"x_max":654,"o":"m 654 760 q 627 695 654 722 q 563 668 600 668 q 498 695 525 668 q 471 760 471 722 q 498 824 471 797 q 563 851 525 851 q 627 824 600 851 q 654 760 654 797 m 385 760 q 358 695 385 722 q 294 668 332 668 q 229 694 256 668 q 203 760 203 721 q 229 825 203 799 q 294 851 256 851 q 358 824 332 851 q 385 760 385 797 z "},"©":{"ha":974,"x_min":160,"x_max":835,"o":"m 540 317 l 571 168 q 572 158 572 161 q 556 140 572 140 q 532 149 543 140 l 160 428 l 532 708 q 556 717 543 717 q 572 699 572 717 q 571 689 572 696 l 540 539 l 835 539 l 835 317 l 540 317 z "},"ª":{"ha":978,"x_min":150,"x_max":825,"o":"m 429 140 q 414 168 408 140 l 444 317 l 150 317 l 150 539 l 444 539 q 414 699 414 689 q 429 717 414 717 q 453 708 442 717 l 825 428 l 453 149 q 429 140 442 140 z "},"°":{"ha":621,"x_min":111,"x_max":507,"o":"m 507 567 q 457 403 507 471 q 310 326 401 326 q 163 403 218 326 q 111 567 111 472 q 163 731 111 661 q 310 808 219 808 q 457 731 401 808 q 507 567 507 661 m 418 567 q 389 656 418 618 q 310 694 360 694 q 231 656 260 694 q 201 567 201 618 q 231 478 201 515 q 310 440 260 440 q 389 481 358 440 q 418 567 418 517 z "},"¿":{"ha":706,"x_min":89,"x_max":617,"o":"m 471 732 q 444 667 471 694 q 379 640 417 640 q 315 667 342 640 q 289 732 289 694 q 315 797 289 769 q 379 824 342 824 q 444 797 417 824 q 471 732 471 769 m 617 107 q 496 26 576 56 q 350 0 424 0 q 168 53 239 0 q 89 218 89 111 q 140 375 89 321 q 238 454 174 400 q 300 606 293 504 l 458 606 l 458 581 q 408 406 458 474 q 315 318 393 385 q 265 226 265 275 q 347 158 265 158 q 449 181 394 158 q 532 236 504 203 l 617 107 z "},"À":{"ha":907,"x_min":78,"x_max":835,"o":"m 835 -4 l 642 -4 l 588 160 l 332 160 l 278 -4 l 78 -4 l 364 793 l 550 793 l 835 -4 m 543 294 l 460 546 l 376 294 l 543 294 m 506 833 l 429 833 l 281 1100 l 407 1100 l 506 833 z "},"Á":{"ha":915,"x_min":78,"x_max":835,"o":"m 835 -4 l 642 -4 l 588 160 l 332 160 l 278 -4 l 78 -4 l 364 793 l 550 793 l 835 -4 m 543 294 l 460 546 l 376 294 l 543 294 m 349 836 l 425 836 l 574 1103 l 447 1103 l 349 836 z "},"Â":{"ha":921,"x_min":81,"x_max":838,"o":"m 838 -4 l 644 -4 l 589 160 l 335 160 l 281 -4 l 81 -4 l 367 793 l 553 793 l 838 -4 m 546 294 l 463 546 l 379 294 l 546 294 m 668 828 l 567 828 l 469 1004 l 374 828 l 275 828 l 417 1096 l 525 1096 l 668 828 z "},"Ã":{"ha":922,"x_min":78,"x_max":835,"o":"m 835 -4 l 640 -4 l 586 160 l 332 160 l 276 -4 l 78 -4 l 363 793 l 549 793 l 835 -4 m 542 294 l 458 546 l 375 294 l 542 294 m 663 960 q 635 908 653 922 q 581 886 626 904 q 532 876 554 876 q 456 894 507 876 q 386 911 406 911 q 304 857 349 911 l 233 901 q 365 996 281 996 q 444 978 392 996 q 522 961 496 961 q 593 1014 583 961 l 663 960 z "},"Ä":{"ha":932,"x_min":60,"x_max":817,"o":"m 817 -4 l 624 -4 l 569 160 l 314 160 l 260 -4 l 60 -4 l 346 793 l 532 793 l 817 -4 m 525 294 l 442 546 l 358 294 l 525 294 m 668 940 q 642 875 668 901 q 576 849 615 849 q 511 875 538 849 q 485 940 485 901 q 512 1004 485 978 q 576 1031 539 1031 q 641 1004 614 1031 q 668 940 668 978 m 399 940 q 373 875 399 901 q 308 849 347 849 q 243 875 269 849 q 217 940 217 901 q 243 1005 217 979 q 308 1031 269 1031 q 372 1004 346 1031 q 399 940 399 978 z "},"Å":{"ha":985,"x_min":78,"x_max":881,"o":"m 881 -4 l 663 -4 l 619 156 l 333 156 l 290 -4 l 78 -4 l 357 743 q 306 853 306 801 q 358 967 306 924 q 479 1006 406 1006 q 603 965 553 1006 q 654 853 654 925 q 601 743 654 801 l 881 -4 m 561 857 q 538 917 561 893 q 479 940 515 940 q 420 917 443 940 q 397 857 397 893 q 419 796 397 819 q 479 772 442 772 q 539 796 517 772 q 561 857 561 819 m 575 286 l 476 556 l 379 286 l 575 286 z "},"Æ":{"ha":1292,"x_min":61,"x_max":1204,"o":"m 1204 -4 l 626 -4 l 626 217 l 365 217 l 276 -4 l 61 -4 l 393 793 l 1204 793 l 1204 626 l 819 626 l 819 496 l 1176 496 l 1176 329 l 819 329 l 819 163 l 1204 163 l 1204 -4 m 626 381 l 626 635 l 546 635 l 435 381 l 626 381 z "},"Ç":{"ha":897,"x_min":78,"x_max":821,"o":"m 821 643 l 658 553 q 482 635 597 635 q 322 565 376 635 q 274 394 274 503 q 325 225 274 290 q 482 154 381 154 q 640 214 585 154 l 810 136 q 576 -6 726 21 q 374 -214 576 -214 q 258 -199 319 -214 l 319 -107 q 378 -114 350 -114 q 476 -12 478 -114 q 190 104 301 -11 q 78 394 78 219 q 185 693 78 585 q 482 801 292 801 q 821 643 715 801 z "},"È":{"ha":719,"x_min":92,"x_max":628,"o":"m 628 -4 l 92 -4 l 92 793 l 628 793 l 628 651 l 268 651 l 268 496 l 489 496 l 489 354 l 268 354 l 268 138 l 628 138 l 628 -4 m 468 833 l 392 833 l 243 1100 l 369 1100 l 468 833 z "},"É":{"ha":735,"x_min":104,"x_max":640,"o":"m 640 -4 l 104 -4 l 104 793 l 640 793 l 640 651 l 281 651 l 281 496 l 500 496 l 500 354 l 281 354 l 281 138 l 640 138 l 640 -4 m 278 836 l 356 836 l 504 1103 l 376 1103 l 278 836 z "},"Ê":{"ha":728,"x_min":96,"x_max":632,"o":"m 632 -4 l 96 -4 l 96 793 l 632 793 l 632 651 l 272 651 l 272 496 l 492 496 l 492 354 l 272 354 l 272 138 l 632 138 l 632 -4 m 547 833 l 447 833 l 350 1010 l 253 833 l 154 833 l 297 1100 l 404 1100 l 547 833 z "},"Ë":{"ha":731,"x_min":97,"x_max":633,"o":"m 633 -4 l 97 -4 l 97 793 l 633 793 l 633 651 l 274 651 l 274 496 l 493 496 l 493 354 l 274 354 l 274 138 l 633 138 l 633 -4 m 599 940 q 572 875 599 901 q 507 849 546 849 q 442 875 468 849 q 417 940 417 901 q 443 1004 417 978 q 507 1031 469 1031 q 572 1005 546 1031 q 599 940 599 979 m 329 940 q 303 875 329 901 q 239 849 278 849 q 174 875 200 849 q 147 940 147 901 q 174 1004 147 978 q 239 1031 201 1031 q 303 1004 276 1031 q 329 940 329 978 z "},"Ì":{"ha":418,"x_min":83,"x_max":308,"o":"m 288 -4 l 119 -4 l 119 793 l 288 793 l 288 -4 m 308 833 l 231 833 l 83 1100 l 210 1100 l 308 833 z "},"Í":{"ha":400,"x_min":97,"x_max":324,"o":"m 283 -4 l 115 -4 l 115 793 l 283 793 l 283 -4 m 97 836 l 175 836 l 324 1103 l 196 1103 l 97 836 z "},"Î":{"ha":501,"x_min":65,"x_max":458,"o":"m 336 -4 l 168 -4 l 168 793 l 336 793 l 336 -4 m 458 833 l 357 833 l 260 1010 l 163 833 l 65 833 l 207 1100 l 315 1100 l 458 833 z "},"Ï":{"ha":488,"x_min":14,"x_max":465,"o":"m 322 -4 l 153 -4 l 153 793 l 322 793 l 322 -4 m 465 940 q 439 875 465 901 q 374 849 413 849 q 308 875 335 849 q 282 940 282 901 q 309 1004 282 978 q 374 1031 336 1031 q 438 1004 411 1031 q 465 940 465 978 m 196 940 q 169 875 196 901 q 104 849 143 849 q 40 875 65 849 q 14 940 14 901 q 40 1004 14 978 q 104 1031 67 1031 q 169 1005 143 1031 q 196 940 196 979 z "},"Ð":{"ha":996,"x_min":79,"x_max":908,"o":"m 908 393 q 771 89 908 193 q 442 -4 649 -4 l 167 -4 l 167 317 l 79 317 l 79 478 l 167 478 l 167 793 l 449 793 q 776 699 657 793 q 908 393 908 596 m 713 396 q 631 585 713 538 q 418 619 571 619 l 356 619 l 356 478 l 528 478 l 528 317 l 356 317 l 356 169 l 418 169 q 713 396 713 169 z "},"Ñ":{"ha":932,"x_min":106,"x_max":807,"o":"m 807 -4 l 625 -4 l 286 543 l 286 -4 l 106 -4 l 106 793 l 335 793 l 626 339 l 626 793 l 807 793 l 807 -4 m 676 960 q 649 908 665 921 q 594 886 644 904 q 546 876 568 876 q 469 894 519 876 q 399 911 419 911 q 318 857 361 911 l 247 901 q 379 996 294 996 q 457 978 406 996 q 536 961 508 961 q 607 1014 596 961 l 676 960 z "},"Ò":{"ha":943,"x_min":88,"x_max":872,"o":"m 872 394 q 771 99 872 206 q 479 -12 667 -12 q 190 100 294 -12 q 88 394 88 208 q 190 692 88 582 q 479 801 293 801 q 769 692 665 801 q 872 394 872 582 m 675 394 q 479 640 675 640 q 283 394 283 640 q 479 149 283 149 q 675 394 675 149 m 549 833 l 471 833 l 322 1100 l 450 1100 l 549 833 z "},"Ó":{"ha":953,"x_min":83,"x_max":868,"o":"m 868 394 q 765 97 868 206 q 475 -12 663 -12 q 188 99 292 -12 q 83 394 83 210 q 186 692 83 582 q 475 801 289 801 q 767 690 661 801 q 868 394 868 582 m 671 394 q 476 640 671 640 q 279 394 279 640 q 476 149 279 149 q 671 394 671 149 m 390 836 l 468 836 l 617 1103 l 489 1103 l 390 836 z "},"Ô":{"ha":957,"x_min":89,"x_max":874,"o":"m 874 394 q 771 97 874 207 q 482 -12 668 -12 q 193 98 297 -12 q 89 394 89 208 q 192 692 89 583 q 482 801 294 801 q 772 692 669 801 q 874 394 874 583 m 678 394 q 482 640 678 640 q 286 394 286 640 q 482 149 286 149 q 678 394 678 149 m 678 833 l 578 833 l 481 1010 l 383 833 l 285 833 l 428 1100 l 536 1100 l 678 833 z "},"Õ":{"ha":961,"x_min":92,"x_max":876,"o":"m 876 394 q 774 97 876 206 q 483 -12 671 -12 q 196 99 300 -12 q 92 394 92 210 q 194 692 92 582 q 483 801 297 801 q 775 690 669 801 q 876 394 876 582 m 679 394 q 485 640 679 640 q 289 394 289 640 q 485 149 289 149 q 679 394 679 149 m 703 960 q 675 908 692 921 q 621 886 667 904 q 572 876 594 876 q 496 894 546 876 q 425 911 446 911 q 343 857 388 911 l 274 901 q 406 996 319 996 q 483 978 432 996 q 563 961 535 961 q 633 1014 622 961 l 703 960 z "},"Ö":{"ha":964,"x_min":93,"x_max":878,"o":"m 878 394 q 775 97 878 206 q 485 -12 672 -12 q 197 99 301 -12 q 93 394 93 210 q 196 692 93 582 q 485 801 299 801 q 776 690 671 801 q 878 394 878 582 m 681 394 q 486 640 681 640 q 290 394 290 640 q 486 149 290 149 q 681 394 681 149 m 701 940 q 675 875 701 901 q 610 849 649 849 q 545 875 571 849 q 519 940 519 901 q 546 1004 519 978 q 610 1031 572 1031 q 675 1005 649 1031 q 701 940 701 979 m 433 940 q 407 875 433 901 q 342 849 381 849 q 276 875 303 849 q 250 940 250 901 q 277 1004 250 978 q 342 1031 304 1031 q 406 1004 379 1031 q 433 940 433 978 z "},"×":{"ha":832,"x_min":101,"x_max":731,"o":"m 731 111 l 644 19 l 415 264 l 188 19 l 101 111 l 331 354 l 101 599 l 188 689 l 415 446 l 644 689 l 731 599 l 501 354 l 731 111 z "},"Ø":{"ha":983,"x_min":108,"x_max":893,"o":"m 893 394 q 790 96 893 206 q 500 -14 688 -14 q 394 -3 444 -14 l 389 -14 l 254 -14 l 282 43 q 108 394 108 147 q 210 692 108 583 q 500 801 313 801 q 650 779 582 801 l 672 825 l 810 825 l 757 721 q 893 394 893 613 m 696 394 q 669 544 696 488 l 471 150 q 500 149 485 149 q 696 394 696 149 m 575 629 q 500 640 542 640 q 304 394 304 640 q 360 200 304 261 l 575 629 z "},"Ù":{"ha":904,"x_min":100,"x_max":783,"o":"m 783 314 q 692 75 783 157 q 442 -7 600 -7 q 194 72 283 -7 q 100 313 100 156 l 100 793 l 286 793 l 286 336 q 442 163 286 163 q 599 336 599 163 l 599 793 l 783 793 l 783 314 m 531 833 l 453 833 l 304 1100 l 431 1100 l 531 833 z "},"Ú":{"ha":969,"x_min":133,"x_max":817,"o":"m 817 314 q 725 75 817 157 q 475 -7 633 -7 q 228 72 317 -7 q 133 313 133 156 l 133 793 l 318 793 l 318 336 q 475 163 318 163 q 632 336 632 163 l 632 793 l 817 793 l 817 314 m 389 836 l 465 836 l 614 1103 l 488 1103 l 389 836 z "},"Û":{"ha":908,"x_min":103,"x_max":786,"o":"m 786 314 q 694 75 786 157 q 444 -7 603 -7 q 197 72 286 -7 q 103 313 103 156 l 103 793 l 288 793 l 288 336 q 444 163 288 163 q 601 336 601 163 l 601 793 l 786 793 l 786 314 m 650 833 l 549 833 l 451 1010 l 356 833 l 257 833 l 399 1100 l 507 1100 l 650 833 z "},"Ü":{"ha":886,"x_min":107,"x_max":789,"o":"m 789 314 q 697 75 789 157 q 447 -7 606 -7 q 200 72 289 -7 q 107 313 107 156 l 107 793 l 292 793 l 292 336 q 447 163 292 163 q 604 336 604 163 l 604 793 l 789 793 l 789 314 m 674 940 q 647 875 674 901 q 582 849 621 849 q 517 875 543 849 q 490 940 490 901 q 517 1004 490 978 q 582 1031 544 1031 q 647 1004 619 1031 q 674 940 674 978 m 404 940 q 378 875 404 901 q 313 849 351 849 q 247 875 274 849 q 221 940 221 901 q 248 1004 221 978 q 313 1031 275 1031 q 377 1004 350 1031 q 404 940 404 978 z "},"Ý":{"ha":974,"x_min":100,"x_max":864,"o":"m 864 793 l 578 304 l 578 -4 l 392 -4 l 392 294 l 100 793 l 311 793 l 489 467 l 661 793 l 864 793 m 371 836 l 449 836 l 597 1103 l 469 1103 l 371 836 z "},"Þ":{"ha":783,"x_min":93,"x_max":719,"o":"m 719 421 q 626 210 719 286 q 403 139 540 139 l 275 139 l 275 -4 l 93 -4 l 93 793 l 275 793 l 275 671 l 408 671 q 719 421 719 671 m 531 417 q 451 500 531 481 q 321 510 413 510 l 275 510 l 275 300 l 335 300 q 467 313 433 300 q 531 417 531 336 z "},"ß":{"ha":836,"x_min":107,"x_max":750,"o":"m 750 244 q 690 100 750 165 q 557 14 636 40 q 394 -7 494 -7 q 357 -6 375 -7 l 357 129 l 438 129 q 533 164 494 129 q 572 254 572 199 q 381 375 572 356 l 381 503 q 465 531 443 517 q 504 607 504 554 q 390 678 504 678 q 275 578 275 678 l 275 -3 l 107 -3 l 107 561 q 186 763 107 692 q 393 831 261 831 q 656 711 578 831 q 686 617 686 664 q 544 451 686 501 q 750 244 750 396 z "},"à":{"ha":756,"x_min":99,"x_max":658,"o":"m 658 -1 l 494 -1 l 494 38 q 319 -6 410 -6 q 158 49 217 -6 q 99 207 99 104 q 175 378 99 319 q 360 431 244 431 q 494 399 435 431 q 367 508 492 508 q 238 465 281 508 l 179 569 q 388 640 250 640 q 575 588 501 640 q 658 419 658 529 l 658 -1 m 493 182 l 493 257 q 454 289 493 276 q 397 299 424 299 q 267 211 267 299 q 381 139 267 139 q 444 153 401 139 q 493 182 493 168 m 469 653 l 392 653 l 243 919 l 369 919 l 469 653 z "},"á":{"ha":749,"x_min":92,"x_max":651,"o":"m 651 -1 l 488 -1 l 488 38 q 313 -6 403 -6 q 151 50 210 -6 q 92 207 92 106 q 168 378 92 319 q 353 431 238 431 q 488 399 428 431 q 360 508 485 508 q 231 465 274 508 l 172 569 q 381 640 243 640 q 568 589 496 640 q 651 419 651 531 l 651 -1 m 486 182 l 486 257 q 447 289 486 276 q 390 299 417 299 q 260 211 260 299 q 374 139 260 139 q 438 153 394 139 q 486 182 486 168 m 331 653 l 408 653 l 556 919 l 429 919 l 331 653 z "},"â":{"ha":778,"x_min":110,"x_max":669,"o":"m 669 -1 l 506 -1 l 506 38 q 331 -6 421 -6 q 169 50 228 -6 q 110 207 110 106 q 186 378 110 319 q 371 431 256 431 q 506 399 446 431 q 378 508 504 508 q 249 465 292 508 l 190 569 q 400 640 261 640 q 588 589 515 640 q 669 419 669 531 l 669 -1 m 504 182 l 504 257 q 465 289 504 276 q 408 299 435 299 q 278 211 278 299 q 392 139 278 139 q 456 153 413 139 q 504 182 504 168 m 618 653 l 517 653 l 419 829 l 324 653 l 225 653 l 367 919 l 475 919 l 618 653 z "},"ã":{"ha":803,"x_min":115,"x_max":676,"o":"m 676 -1 l 511 -1 l 511 38 q 336 -6 426 -6 q 174 50 233 -6 q 115 207 115 106 q 192 378 115 319 q 376 431 261 431 q 511 399 453 431 q 385 508 510 508 q 256 465 299 508 l 197 569 q 406 640 268 640 q 593 588 519 640 q 676 419 676 529 l 676 -1 m 510 182 l 510 257 q 471 289 510 276 q 414 299 440 299 q 283 211 283 299 q 397 139 283 139 q 461 153 418 139 q 510 182 510 168 m 639 781 q 611 729 631 744 q 557 706 601 722 q 508 696 531 696 q 433 713 483 696 q 363 731 382 731 q 281 676 325 731 l 210 722 q 342 815 257 815 q 420 798 368 815 q 499 781 472 781 q 569 833 560 781 l 639 781 z "},"ä":{"ha":783,"x_min":107,"x_max":668,"o":"m 668 -1 l 503 -1 l 503 38 q 328 -6 418 -6 q 166 50 225 -6 q 107 207 107 106 q 183 378 107 319 q 368 431 253 431 q 503 399 444 431 q 376 508 501 508 q 247 465 290 508 l 188 569 q 397 640 261 640 q 585 588 511 640 q 668 419 668 529 l 668 -1 m 501 182 l 501 257 q 463 289 501 276 q 406 299 432 299 q 275 211 275 299 q 389 139 275 139 q 453 153 410 139 q 501 182 501 168 m 615 760 q 588 695 615 722 q 524 668 561 668 q 459 695 486 668 q 432 760 432 722 q 459 824 432 797 q 524 850 486 850 q 588 824 561 850 q 615 760 615 797 m 346 760 q 319 695 346 722 q 256 668 293 668 q 190 694 217 668 q 164 760 164 721 q 190 824 164 799 q 256 850 217 850 q 319 824 293 850 q 346 760 346 797 z "},"å":{"ha":775,"x_min":97,"x_max":658,"o":"m 658 -1 l 494 -1 l 494 38 q 319 -6 410 -6 q 157 51 217 -6 q 97 211 97 108 q 175 382 97 324 q 360 433 243 433 q 494 410 442 433 q 367 504 474 504 q 238 463 292 504 l 179 582 q 289 639 213 622 q 239 751 239 686 q 283 862 239 818 q 394 906 328 906 q 504 861 460 906 q 549 751 549 817 q 500 629 549 663 q 658 419 658 575 l 658 -1 m 475 751 q 453 813 475 788 q 394 838 431 838 q 335 813 358 838 q 313 751 313 788 q 335 690 313 714 q 394 665 357 665 q 453 690 431 665 q 475 751 475 715 m 494 182 l 494 276 q 397 299 494 299 q 267 211 267 299 q 381 139 267 139 q 447 147 414 139 q 494 182 494 160 z "},"æ":{"ha":1218,"x_min":99,"x_max":1099,"o":"m 1099 229 l 663 229 q 697 165 661 194 q 767 133 728 140 q 806 131 782 131 q 919 169 892 131 l 1039 81 q 796 -15 965 -15 q 676 10 728 -15 q 578 81 639 28 q 508 25 553 58 q 485 14 504 22 q 340 -15 414 -15 q 165 44 232 -15 q 99 211 99 104 q 176 381 99 322 q 361 433 246 433 q 496 410 444 433 q 369 504 476 504 q 240 463 293 504 l 182 582 q 379 649 236 649 q 603 569 524 649 q 810 633 683 633 q 1039 507 958 633 q 1099 229 1099 414 m 932 361 q 894 455 932 417 q 800 493 856 493 q 703 455 744 493 q 661 361 661 417 l 932 361 m 496 239 q 494 260 496 246 q 492 282 492 275 q 399 299 467 299 q 268 211 268 299 q 382 139 268 139 q 449 149 413 139 q 496 182 496 161 l 496 239 z "},"ç":{"ha":718,"x_min":88,"x_max":640,"o":"m 640 86 q 479 -7 579 14 l 479 -31 q 279 -206 479 -206 q 203 -199 242 -206 l 240 -106 q 276 -111 257 -111 q 353 -85 322 -111 q 383 -15 383 -60 q 166 78 244 -8 q 88 306 88 165 q 175 535 88 444 q 401 626 263 626 q 621 542 532 626 l 493 446 q 401 478 460 478 q 294 424 331 478 q 264 304 264 378 q 403 133 264 133 q 501 169 469 133 l 640 86 z "},"è":{"ha":821,"x_min":117,"x_max":724,"o":"m 724 229 l 288 229 q 321 167 286 196 q 392 133 356 139 q 431 131 410 131 q 538 178 504 131 l 657 89 q 431 -15 576 -15 q 202 72 288 -15 q 117 301 117 158 q 199 544 117 456 q 435 633 282 633 q 664 507 582 633 q 724 229 724 414 m 557 361 q 519 455 557 417 q 425 493 481 493 q 328 455 369 493 q 286 361 286 417 l 557 361 m 489 653 l 411 653 l 264 919 l 390 919 l 489 653 z "},"é":{"ha":813,"x_min":107,"x_max":714,"o":"m 714 229 l 278 229 q 314 165 278 194 q 382 133 346 139 q 422 131 400 131 q 528 178 496 131 l 649 89 q 421 -15 565 -15 q 192 72 278 -15 q 107 301 107 158 q 190 544 107 456 q 425 633 272 633 q 656 507 574 633 q 714 238 714 417 l 714 229 m 547 361 q 509 455 547 417 q 415 493 471 493 q 318 455 360 493 q 276 361 276 417 l 547 361 m 301 653 l 379 653 l 528 919 l 400 919 l 301 653 z "},"ê":{"ha":810,"x_min":97,"x_max":704,"o":"m 704 229 l 268 229 q 301 167 267 196 q 372 133 336 139 q 411 131 390 131 q 518 178 485 131 l 638 89 q 411 -15 557 -15 q 183 72 268 -15 q 97 301 97 158 q 180 544 97 456 q 415 633 263 633 q 644 507 563 633 q 704 229 704 414 m 538 361 q 499 455 538 417 q 406 493 461 493 q 308 455 350 493 q 267 361 267 417 l 538 361 m 594 653 l 493 653 l 396 829 l 299 653 l 201 653 l 343 919 l 451 919 l 594 653 z "},"ë":{"ha":811,"x_min":88,"x_max":694,"o":"m 694 229 l 258 229 q 292 167 257 196 q 363 133 326 139 q 401 131 381 131 q 508 178 475 131 l 628 89 q 401 -15 547 -15 q 173 72 258 -15 q 88 301 88 158 q 170 544 88 456 q 406 633 253 633 q 635 507 553 633 q 694 229 694 414 m 528 361 q 490 455 528 417 q 396 493 451 493 q 299 455 340 493 q 257 361 257 417 l 528 361 m 628 760 q 601 694 628 721 q 536 668 575 668 q 472 695 499 668 q 446 760 446 722 q 472 824 446 797 q 536 850 499 850 q 601 824 575 850 q 628 760 628 799 m 360 760 q 333 695 360 722 q 268 668 306 668 q 203 695 231 668 q 176 760 176 722 q 203 824 176 797 q 268 850 231 850 q 333 824 306 850 q 360 760 360 797 z "},"ì":{"ha":396,"x_min":61,"x_max":286,"o":"m 286 653 l 208 653 l 61 919 l 188 919 l 286 653 m 275 -4 l 107 -4 l 107 589 l 275 589 l 275 -4 z "},"í":{"ha":396,"x_min":104,"x_max":344,"o":"m 272 -4 l 104 -4 l 104 589 l 272 589 l 272 -4 m 119 653 l 197 653 l 344 919 l 218 919 l 119 653 z "},"î":{"ha":383,"x_min":56,"x_max":357,"o":"m 357 686 l 274 686 l 204 821 l 138 686 l 56 686 l 157 883 l 256 883 l 357 686 m 276 -4 l 136 -4 l 136 586 l 276 586 l 276 -4 z "},"ï":{"ha":368,"x_min":-11,"x_max":440,"o":"m 440 760 q 413 695 440 722 q 349 668 386 668 q 284 695 311 668 q 257 760 257 722 q 284 824 257 797 q 349 850 311 850 q 413 824 386 850 q 440 760 440 797 m 171 760 q 144 694 171 721 q 79 668 118 668 q 15 695 42 668 q -11 760 -11 722 q 15 824 -11 797 q 79 850 42 850 q 144 824 118 850 q 171 760 171 799 m 288 -4 l 139 -4 l 139 590 l 288 590 l 288 -4 z "},"ð":{"ha":864,"x_min":115,"x_max":729,"o":"m 729 347 q 658 88 729 183 q 419 -21 578 -21 q 197 55 279 -21 q 115 269 115 131 q 192 467 115 393 q 394 540 269 540 q 544 500 442 540 q 436 663 492 604 l 264 592 l 231 672 l 367 726 q 229 824 329 756 l 443 824 q 504 782 467 810 l 621 831 l 654 750 l 576 717 q 729 347 729 531 m 556 288 q 551 347 556 315 q 408 396 485 396 q 292 274 292 396 q 425 100 292 100 q 556 288 556 100 z "},"ñ":{"ha":796,"x_min":108,"x_max":674,"o":"m 674 -4 l 506 -4 l 506 346 q 478 432 506 399 q 399 465 450 465 q 310 431 347 465 q 274 346 274 397 l 274 -4 l 108 -4 l 108 614 l 274 614 l 274 561 q 447 624 342 624 q 611 563 549 624 q 674 400 674 501 l 674 -4 m 624 781 q 596 729 615 744 q 542 706 586 722 q 493 696 515 696 q 417 713 468 696 q 347 731 367 731 q 265 676 310 731 l 194 722 q 326 815 242 815 q 405 798 353 815 q 483 781 457 781 q 554 833 544 781 l 624 781 z "},"ò":{"ha":811,"x_min":97,"x_max":724,"o":"m 724 306 q 639 73 724 161 q 411 -15 554 -15 q 181 72 265 -15 q 97 306 97 158 q 185 535 97 444 q 411 626 274 626 q 636 535 549 626 q 724 306 724 444 m 547 304 q 411 478 547 478 q 304 424 340 478 q 274 304 274 378 q 413 133 274 133 q 547 304 547 133 m 499 653 l 422 653 l 274 919 l 400 919 l 499 653 z "},"ó":{"ha":822,"x_min":107,"x_max":733,"o":"m 733 306 q 649 73 733 161 q 421 -15 565 -15 q 191 72 275 -15 q 107 306 107 158 q 195 535 107 444 q 421 626 283 626 q 646 535 558 626 q 733 306 733 444 m 558 304 q 421 478 558 478 q 314 424 350 478 q 283 304 283 378 q 422 133 283 133 q 558 304 558 133 m 397 653 l 474 653 l 622 919 l 496 919 l 397 653 z "},"ô":{"ha":825,"x_min":100,"x_max":726,"o":"m 726 306 q 642 73 726 161 q 413 -15 557 -15 q 183 72 267 -15 q 100 306 100 158 q 188 535 100 444 q 413 626 275 626 q 639 535 551 626 q 726 306 726 444 m 550 304 q 413 478 550 478 q 307 424 343 478 q 276 304 276 378 q 414 133 276 133 q 550 304 550 133 m 611 653 l 511 653 l 414 829 l 317 653 l 218 653 l 361 919 l 468 919 l 611 653 z "},"õ":{"ha":839,"x_min":115,"x_max":743,"o":"m 743 306 q 658 73 743 161 q 429 -15 574 -15 q 199 72 283 -15 q 115 306 115 158 q 203 535 115 444 q 429 626 292 626 q 656 535 568 626 q 743 306 743 444 m 567 304 q 429 478 567 478 q 322 424 358 478 q 292 304 292 378 q 431 133 292 133 q 567 304 567 133 m 650 781 q 622 729 640 743 q 568 706 614 722 q 519 696 542 696 q 443 713 493 696 q 372 731 393 731 q 290 676 335 731 l 221 722 q 353 815 267 815 q 431 798 379 815 q 510 781 482 781 q 579 833 569 781 l 650 781 z "},"ö":{"ha":854,"x_min":108,"x_max":735,"o":"m 735 306 q 651 73 735 161 q 422 -15 567 -15 q 192 72 276 -15 q 108 306 108 158 q 197 535 108 444 q 422 626 285 626 q 647 535 560 626 q 735 306 735 444 m 560 304 q 422 478 560 478 q 315 424 351 478 q 285 304 285 378 q 424 133 285 133 q 560 304 560 133 m 657 760 q 630 695 657 722 q 565 668 603 668 q 501 695 528 668 q 474 760 474 722 q 501 824 474 797 q 565 850 528 850 q 630 824 603 850 q 657 760 657 797 m 388 760 q 361 694 388 721 q 296 668 335 668 q 232 695 258 668 q 206 760 206 722 q 232 824 206 797 q 296 850 258 850 q 361 824 335 850 q 388 760 388 799 z "},"÷":{"ha":838,"x_min":83,"x_max":775,"o":"m 554 633 q 519 549 554 585 q 436 514 485 514 q 353 549 388 514 q 319 633 319 585 q 353 718 319 683 q 436 753 386 753 q 520 718 486 753 q 554 633 554 683 m 775 288 l 83 288 l 83 421 l 775 421 l 775 288 m 554 75 q 519 -6 554 26 q 436 -39 485 -39 q 353 -6 388 -39 q 319 75 319 26 q 354 155 319 122 q 436 188 389 188 q 519 155 483 188 q 554 75 554 122 z "},"ø":{"ha":824,"x_min":103,"x_max":731,"o":"m 731 307 q 649 70 731 156 q 417 -15 567 -15 q 196 68 271 -15 q 103 307 103 172 q 185 542 103 457 q 417 628 267 628 q 646 540 561 628 q 731 307 731 451 m 496 442 q 417 472 456 472 q 317 435 354 472 q 281 335 281 397 q 307 232 281 283 l 496 442 m 557 297 q 543 382 557 339 l 344 168 q 418 142 396 142 q 522 188 485 142 q 557 297 557 229 z "},"ù":{"ha":789,"x_min":121,"x_max":686,"o":"m 686 -1 l 521 -1 l 521 51 q 347 -11 453 -11 q 183 49 246 -11 q 121 211 121 110 l 121 615 l 289 615 l 289 267 q 317 181 289 214 q 396 147 344 147 q 484 181 447 147 q 521 267 521 215 l 521 615 l 686 615 l 686 -1 m 507 653 l 429 653 l 281 919 l 407 919 l 507 653 z "},"ú":{"ha":804,"x_min":119,"x_max":686,"o":"m 686 -1 l 519 -1 l 519 51 q 346 -11 451 -11 q 182 49 244 -11 q 119 211 119 110 l 119 615 l 288 615 l 288 267 q 315 181 288 214 q 394 147 343 147 q 483 181 446 147 q 519 267 519 215 l 519 615 l 686 615 l 686 -1 m 335 653 l 411 653 l 560 919 l 433 919 l 335 653 z "},"û":{"ha":771,"x_min":106,"x_max":671,"o":"m 671 -1 l 504 -1 l 504 51 q 332 -11 438 -11 q 167 49 229 -11 q 106 211 106 108 l 106 615 l 272 615 l 272 267 q 300 181 272 214 q 379 147 328 147 q 467 181 431 147 q 504 267 504 215 l 504 615 l 671 615 l 671 -1 m 592 653 l 492 653 l 394 829 l 297 653 l 199 653 l 342 919 l 450 919 l 592 653 z "},"ü":{"ha":769,"x_min":97,"x_max":663,"o":"m 663 -1 l 496 -1 l 496 51 q 324 -11 429 -11 q 160 49 222 -11 q 97 211 97 110 l 97 615 l 265 615 l 265 267 q 293 181 265 214 q 372 147 321 147 q 460 181 424 147 q 496 267 496 215 l 496 615 l 663 615 l 663 -1 m 606 760 q 579 695 606 722 q 515 668 553 668 q 450 694 476 668 q 424 760 424 721 q 450 824 424 799 q 515 850 476 850 q 579 824 553 850 q 606 760 606 797 m 338 760 q 310 695 338 722 q 246 668 283 668 q 181 695 208 668 q 154 760 154 722 q 181 824 154 797 q 246 850 208 850 q 310 824 283 850 q 338 760 338 797 z "},"ý":{"ha":853,"x_min":103,"x_max":779,"o":"m 779 615 l 424 -254 l 250 -254 l 351 1 l 103 615 l 275 615 l 443 207 l 617 615 l 779 615 m 335 653 l 411 653 l 560 919 l 433 919 l 335 653 z "},"þ":{"ha":786,"x_min":97,"x_max":689,"o":"m 689 314 q 624 101 689 190 q 432 3 551 3 q 265 51 322 3 l 265 -203 l 97 -203 l 97 825 l 265 825 l 265 522 q 419 600 321 600 q 613 517 538 600 q 689 314 689 433 m 540 296 q 500 400 540 354 q 403 446 460 446 q 305 400 344 446 q 265 296 265 354 q 305 192 265 238 q 403 147 344 147 q 500 192 460 147 q 540 296 540 238 z "},"ÿ":{"ha":840,"x_min":92,"x_max":768,"o":"m 768 615 l 413 -254 l 239 -254 l 340 1 l 92 615 l 264 615 l 432 207 l 606 615 l 768 615 m 665 760 q 639 694 665 721 q 574 668 613 668 q 510 695 536 668 q 483 760 483 722 q 510 824 483 797 q 574 850 536 850 q 639 824 613 850 q 665 760 665 799 m 397 760 q 370 695 397 722 q 306 668 343 668 q 241 695 268 668 q 214 760 214 722 q 241 824 214 797 q 306 850 268 850 q 370 824 343 850 q 397 760 397 797 z "},"ı":{"ha":483,"x_min":196,"x_max":363,"o":"m 363 -4 l 196 -4 l 196 589 l 363 589 l 363 -4 z "},"ˆ":{"ha":828,"x_min":242,"x_max":635,"o":"m 635 653 l 533 653 l 436 829 l 340 653 l 242 653 l 383 919 l 492 919 l 635 653 z "},"ˇ":{"ha":575,"x_min":104,"x_max":497,"o":"m 497 871 l 354 604 l 247 604 l 104 871 l 203 871 l 300 694 l 397 871 l 497 871 z "},"¯":{"ha":608,"x_min":121,"x_max":492,"o":"m 492 646 l 121 646 l 121 825 l 492 825 l 492 646 z "},"˘":{"ha":579,"x_min":113,"x_max":467,"o":"m 467 864 q 429 692 456 746 q 290 603 386 603 q 113 864 138 603 l 197 864 q 290 710 215 710 q 383 864 363 710 l 467 864 z "},"˙":{"ha":440,"x_min":117,"x_max":310,"o":"m 310 768 q 282 700 310 728 q 214 672 254 672 q 145 700 174 672 q 117 768 117 728 q 145 836 117 808 q 214 864 174 864 q 281 835 253 864 q 310 768 310 807 z "},"˚":{"ha":521,"x_min":113,"x_max":403,"o":"m 403 758 q 361 654 403 697 q 258 611 319 611 q 155 654 197 611 q 113 758 113 697 q 155 863 113 819 q 258 906 197 906 q 360 862 318 906 q 403 758 403 818 m 333 763 q 312 813 333 792 q 261 833 290 833 q 210 813 232 833 q 189 763 189 792 q 210 713 189 733 q 261 692 232 692 q 312 713 290 692 q 333 763 333 733 z "},"˛":{"ha":424,"x_min":113,"x_max":351,"o":"m 351 -76 q 342 -193 344 -146 q 260 -206 290 -206 q 113 11 113 -206 q 115 78 113 28 l 183 78 q 182 22 182 33 q 208 -60 182 -26 q 281 -93 233 -93 q 351 -76 297 -93 z "},"˜":{"ha":844,"x_min":228,"x_max":657,"o":"m 657 781 q 629 729 647 743 q 575 706 621 722 q 526 696 549 696 q 450 713 500 696 q 379 731 400 731 q 297 676 342 731 l 228 722 q 360 815 274 815 q 438 798 386 815 q 517 781 489 781 q 586 833 576 781 l 657 781 z "},"˝":{"ha":597,"x_min":110,"x_max":525,"o":"m 525 908 l 404 640 l 319 640 l 400 908 l 525 908 m 315 908 l 194 640 l 110 640 l 190 908 l 315 908 z "},"‘":{"ha":363,"x_min":107,"x_max":289,"o":"m 289 692 q 262 627 289 654 q 197 600 235 600 q 133 627 160 600 q 107 692 107 654 q 142 821 107 772 q 258 878 182 878 l 258 843 q 211 826 231 843 q 190 782 192 808 q 289 692 289 782 z "},"’":{"ha":361,"x_min":90,"x_max":274,"o":"m 274 733 q 238 604 274 654 q 121 549 197 549 l 122 582 q 168 599 149 582 q 189 643 188 617 q 119 667 147 643 q 90 733 90 692 q 117 799 90 772 q 182 825 143 825 q 247 799 221 825 q 274 733 274 772 z "},"‚":{"ha":367,"x_min":85,"x_max":275,"o":"m 275 263 l 154 -99 l 85 -99 l 149 263 l 275 263 z "},"‛":{"ha":318,"x_min":67,"x_max":257,"o":"m 257 825 l 193 464 l 67 464 l 188 825 l 257 825 z "},"“":{"ha":585,"x_min":93,"x_max":508,"o":"m 508 692 q 481 627 508 654 q 417 600 454 600 q 352 627 379 600 q 325 692 325 654 q 361 821 325 771 q 478 878 401 878 l 478 843 q 431 826 450 843 q 410 782 411 808 q 508 692 508 782 m 276 692 q 249 627 276 654 q 185 600 222 600 q 120 627 147 600 q 93 692 93 654 q 129 821 93 771 q 246 878 169 878 l 244 843 q 199 826 218 843 q 178 782 179 808 q 276 692 276 782 z "},"”":{"ha":564,"x_min":81,"x_max":496,"o":"m 496 733 q 460 604 496 654 q 343 549 419 549 l 344 582 q 390 599 371 582 q 411 643 410 617 q 342 667 369 643 q 314 733 314 692 q 340 799 314 772 q 404 825 365 825 q 469 799 443 825 q 496 733 496 772 m 264 733 q 228 604 264 654 q 111 549 188 549 l 113 582 q 158 599 139 582 q 179 643 178 617 q 109 667 138 643 q 81 733 81 692 q 107 799 81 772 q 172 825 133 825 q 238 799 211 825 q 264 733 264 772 z "},"…":{"ha":885,"x_min":117,"x_max":788,"o":"m 788 88 q 761 22 788 49 q 696 -4 735 -4 q 632 23 658 -4 q 606 88 606 50 q 632 152 606 125 q 696 179 658 179 q 761 153 735 179 q 788 88 788 126 m 543 88 q 517 22 543 49 q 451 -4 490 -4 q 388 23 414 -4 q 361 88 361 50 q 388 152 361 125 q 451 179 414 179 q 517 153 490 179 q 543 88 543 126 m 299 88 q 272 22 299 49 q 207 -4 246 -4 q 143 23 169 -4 q 117 88 117 50 q 143 152 117 125 q 207 179 169 179 q 272 153 246 179 q 299 88 299 126 z "}}}
